<?xml version="1.0" standalone="no"?><!DOCTYPE svg PUBLIC "-//W3C//DTD SVG 1.1//EN" "http://www.w3.org/Graphics/SVG/1.1/DTD/svg11.dtd"><svg t="1532794347041" class="icon" style="" viewBox="0 0 1024 1024" version="1.1" xmlns="http://www.w3.org/2000/svg" p-id="16187" xmlns:xlink="http://www.w3.org/1999/xlink" width="200" height="200"><defs><style type="text/css"></style></defs><path d="M744.96 844.8l146.432 76.8-142.848-391.168c-7.168-18.432-29.184-29.184-47.616-22.016l-138.752 51.2c-18.432 7.168-29.184 29.184-22.016 47.616l142.848 391.168 61.952-153.6z m-428.032 0l61.952 153.6 142.848-391.168c7.168-18.432-3.584-40.448-22.016-47.616l-138.752-51.2c-18.432-7.168-40.448 3.584-47.616 22.016l-142.848 391.168 146.432-76.8z" fill="#EF4B4B" p-id="16188"></path><path d="M530.944 778.752l-175.616 10.752-95.232-142.848-120.832-128 51.2-168.448 25.6-172.032 164.352-61.952 150.016-91.648 150.016 91.648 164.352 61.952 25.6 172.032 51.2 168.448-120.832 128-94.208 143.36-175.616-11.264z" fill="#FFE034" p-id="16189"></path><path d="M530.944 684.032c142.848 0 256-113.152 256-256s-113.152-256-256-256-256 113.152-256 256 113.152 256 256 256z" fill="#E9B92F" p-id="16190"></path><path d="M600.064 256V573.952h-87.552v-208.384c-14.848 10.752-29.184 18.432-40.448 25.6-10.752 7.168-29.184 14.848-51.2 18.432v-73.216c29.184-10.752 51.2-22.016 69.632-32.768s29.184-29.184 40.448-51.2h69.632v3.584z" fill="#FFF09A" p-id="16191"></path></svg>