<?xml version="1.0" standalone="no"?><!DOCTYPE svg PUBLIC "-//W3C//DTD SVG 1.1//EN" "http://www.w3.org/Graphics/SVG/1.1/DTD/svg11.dtd"><svg t="1532794357516" class="icon" style="" viewBox="0 0 1024 1024" version="1.1" xmlns="http://www.w3.org/2000/svg" p-id="16299" xmlns:xlink="http://www.w3.org/1999/xlink" width="200" height="200"><defs><style type="text/css"></style></defs><path d="M669.257 1005.714l62.172-153.6 146.285 76.8L735.086 537.6c-7.315-18.286-29.257-29.257-47.543-21.943l-138.972 51.2c-18.285 7.314-29.257 29.257-21.942 47.543l142.628 391.314zM299.886 855.771l62.171 153.6 142.629-391.314c7.314-18.286-3.657-40.228-21.943-47.543l-138.972-51.2c-18.285-7.314-40.228 3.657-47.542 21.943L153.6 932.571l146.286-76.8z" fill="#5FCCFB" p-id="16300"></path><path d="M512 786.286l-175.543 14.628-95.086-146.285-120.685-128 51.2-164.572 25.6-175.543 164.571-62.171L512 36.57l149.943 87.772 164.571 62.171 25.6 175.543 51.2 164.572-120.685 128-95.086 146.285z" fill="#D3E1EA" p-id="16301"></path><path d="M512 694.857c142.629 0 256-113.371 256-256s-113.371-256-256-256-256 113.372-256 256 113.371 256 256 256z" fill="#A4B8C4" p-id="16302"></path><path d="M640 585.143H376.686c3.657-25.6 10.971-51.2 25.6-73.143s43.885-51.2 84.114-80.457c25.6-18.286 40.229-32.914 47.543-43.886s10.971-18.286 10.971-29.257-3.657-18.286-10.971-25.6-14.629-10.971-25.6-10.971c-10.972 0-21.943 3.657-25.6 10.971s-10.972 18.286-14.629 36.571l-87.771-7.314c3.657-25.6 10.971-43.886 18.286-58.514s21.942-25.6 40.228-32.914 40.229-10.972 69.486-10.972c29.257 0 54.857 3.657 73.143 10.972s29.257 18.285 40.228 32.914 14.629 29.257 14.629 47.543-7.314 36.571-18.286 54.857-32.914 36.571-62.171 58.514c-18.286 10.972-29.257 21.943-36.572 25.6s-14.628 10.972-21.943 18.286h135.315v76.8z" fill="#E1EDF5" p-id="16303"></path></svg>