<?xml version="1.0" standalone="no"?><!DOCTYPE svg PUBLIC "-//W3C//DTD SVG 1.1//EN" "http://www.w3.org/Graphics/SVG/1.1/DTD/svg11.dtd"><svg t="1532794362005" class="icon" style="" viewBox="0 0 1024 1024" version="1.1" xmlns="http://www.w3.org/2000/svg" p-id="16411" xmlns:xlink="http://www.w3.org/1999/xlink" width="200" height="200"><defs><style type="text/css"></style></defs><path d="M727.771 855.771l146.286 76.8L731.43 541.257c-7.315-18.286-29.258-29.257-47.543-21.943l-138.972 51.2c-18.285 7.315-29.257 29.257-21.943 47.543L665.6 1009.371l62.171-153.6z m-427.885 0l62.171 153.6 142.629-391.314c7.314-18.286-3.657-40.228-21.943-47.543l-138.972-51.2c-18.285-7.314-40.228 3.657-47.542 21.943L153.6 932.571l146.286-76.8z" fill="#A0A1ED" p-id="16412"></path><path d="M512 786.286l-175.543 14.628-95.086-146.285-120.685-128 51.2-164.572 25.6-175.543 164.571-62.171L512 36.57l149.943 87.772 164.571 62.171 25.6 175.543 51.2 164.572-120.685 128-95.086 146.285z" fill="#D69982" p-id="16413"></path><path d="M512 694.857c142.629 0 256-113.371 256-256s-113.371-256-256-256-256 113.372-256 256 113.371 256 256 256z" fill="#AC7D6B" p-id="16414"></path><path d="M468.114 380.343L384 365.714c7.314-25.6 18.286-47.543 40.229-62.171S471.77 281.6 508.343 281.6c40.228 0 69.486 7.314 87.771 21.943s29.257 32.914 29.257 58.514c0 14.629-3.657 25.6-10.971 36.572s-18.286 21.942-32.914 29.257c10.971 3.657 21.943 7.314 29.257 10.971 10.971 7.314 18.286 14.629 25.6 25.6s7.314 21.943 7.314 36.572c0 18.285-3.657 36.571-14.628 51.2s-21.943 29.257-40.229 40.228-40.229 14.629-69.486 14.629c-29.257 0-51.2-3.657-65.828-10.972s-29.257-18.285-40.229-29.257-18.286-29.257-25.6-47.543l87.772-10.971c3.657 18.286 7.314 29.257 14.628 36.571s14.629 10.972 29.257 10.972c10.972 0 21.943-3.657 29.257-14.629s10.972-18.286 10.972-32.914-3.657-25.6-10.972-32.914-18.285-10.972-29.257-10.972c-7.314 0-14.628 0-29.257 3.657l3.657-62.171h10.972c10.971 0 21.943-3.657 29.257-10.972s10.971-14.628 10.971-25.6c0-10.971-3.657-18.285-7.314-21.942s-14.629-7.315-21.943-7.315c-10.971 0-18.286 3.657-25.6 10.972s-18.286 14.628-21.943 29.257z" fill="#F8C6AD" p-id="16415"></path></svg>